<svg viewBox="0 0 100 100" xmlns="http://www.w3.org/2000/svg">
<defs><radialGradient id="bg" cx="50%" cy="40%" r="72%"><stop offset="0%" stop-color="#4a8c7a"/><stop offset="100%" stop-color="#142420"/></radialGradient></defs>
<rect width="100" height="100" fill="url(#bg)"/>
<g fill="#f6d28a" opacity="0.7">
<path d="M 16 30 l 0.7 -2 l 0.7 2 l 2 0.7 l -2 0.7 l -0.7 2 l -0.7 -2 l -2 -0.7 z"/>
<path d="M 84 22 l 0.7 -2 l 0.7 2 l 2 0.7 l -2 0.7 l -0.7 2 l -0.7 -2 l -2 -0.7 z"/>
<path d="M 88 50 l 0.5 -1.5 l 0.5 1.5 l 1.5 0.5 l -1.5 0.5 l -0.5 1.5 l -0.5 -1.5 l -1.5 -0.5 z" opacity="0.5"/>
</g>
<path d="M 16,100 Q 26,78 40,74 L 60,74 Q 74,78 84,100 Z" fill="#d4a544"/>
<path d="M 38,74 L 36,100 L 40,100 L 42,74" fill="#a8261e"/>
<path d="M 62,74 L 64,100 L 60,100 L 58,74" fill="#a8261e"/>
<circle cx="40" cy="84" r="1.2" fill="#1a1320"/>
<circle cx="60" cy="84" r="1.2" fill="#1a1320"/>
<rect x="44" y="62" width="12" height="14" fill="#f0d2ad"/>
<ellipse cx="50" cy="46" rx="17" ry="18" fill="#f0d2ad"/>
<g fill="#7a3a18">
<circle cx="34" cy="34" r="6"/>
<circle cx="66" cy="34" r="6"/>
<circle cx="28" cy="44" r="5"/>
<circle cx="72" cy="44" r="5"/>
<circle cx="30" cy="54" r="4"/>
<circle cx="70" cy="54" r="4"/>
<circle cx="42" cy="30" r="6"/>
<circle cx="50" cy="28" r="6"/>
<circle cx="58" cy="30" r="6"/>
</g>
<g transform="translate(50,24)">
<path d="M -10,-2 Q -14,-8 -10,-10 L -2,-4 Z" fill="#a8261e"/>
<path d="M  10,-2 Q  14,-8  10,-10 L  2,-4 Z" fill="#a8261e"/>
<ellipse cx="0" cy="-3" rx="3" ry="3" fill="#a8261e"/>
<ellipse cx="0" cy="-3" rx="1.2" ry="1.2" fill="#d4a544"/>
</g>
<circle cx="42" cy="46" r="3" fill="#1a1320"/>
<circle cx="58" cy="46" r="3" fill="#1a1320"/>
<circle cx="43" cy="45" r="0.8" fill="#ebe7df"/>
<circle cx="59" cy="45" r="0.8" fill="#ebe7df"/>
<circle cx="36" cy="54" r="2.4" fill="#e08a8a" opacity="0.55"/>
<circle cx="64" cy="54" r="2.4" fill="#e08a8a" opacity="0.55"/>
<path d="M 44,58 Q 50,63 56,58" stroke="#5a2818" stroke-width="1.4" fill="none" stroke-linecap="round"/>
<rect x="49" y="58" width="2" height="3" fill="#ebe7df" stroke="#5a2818" stroke-width="0.4"/>
</svg>
